HIERARCHY
ROOT Hips
{
	OFFSET 0.00000 0.00000 0.00000
	CHANNELS 6 Xposition Yposition Zposition Zrotation Yrotation Xrotation 
	JOINT LHipJoint
	{
		OFFSET 0 0 0
		CHANNELS 3 Zrotation Yrotation Xrotation
		JOINT LeftHip
		{
			OFFSET 1.56857 -1.73443 1.15205
			CHANNELS 3 Zrotation Yrotation Xrotation
			JOINT LeftKnee
			{
				OFFSET 2.39362 -6.57643 0.00000
				CHANNELS 3 Zrotation Yrotation Xrotation
				JOINT LeftAnkle
				{
					OFFSET 2.50952 -6.89485 0.00000
					CHANNELS 3 Zrotation Yrotation Xrotation
					JOINT LeftToe
					{
						OFFSET 0.17171 -0.47178 1.88682
						CHANNELS 3 Zrotation Yrotation Xrotation
						End Site
						{
							OFFSET 0.00000 -0.00000 0.98146
						}
					}
				}
			}
		}
	}
	JOINT RHipJoint
	{
		OFFSET 0 0 0
		CHANNELS 3 Zrotation Yrotation Xrotation
		JOINT RightHip
		{
			OFFSET -1.28153 -1.73443 1.15205
			CHANNELS 3 Zrotation Yrotation Xrotation
			JOINT RightKnee
			{
				OFFSET -2.26861 -6.23296 0.00000
				CHANNELS 3 Zrotation Yrotation Xrotation
				JOINT RightAnkle
				{
					OFFSET -2.54143 -6.98254 0.00000
					CHANNELS 3 Zrotation Yrotation Xrotation
					JOINT RightToe
					{
						OFFSET -0.23309 -0.64041 1.93119
						CHANNELS 3 Zrotation Yrotation Xrotation
						End Site
						{
							OFFSET -0.00000 -0.00000 1.02013
						}
					}
				}
			}
		}
	}
	JOINT lowerback
	{
		OFFSET 0 0 0
		CHANNELS 3 Zrotation Yrotation Xrotation
		JOINT Chest
		{
			OFFSET -0.07096 2.10460 -0.27878
			CHANNELS 3 Zrotation Yrotation Xrotation
			JOINT Chest2
			{
				OFFSET -0.00826 2.13662 -0.08279
				CHANNELS 3 Zrotation Yrotation Xrotation
				JOINT lowerneck
				{
					OFFSET 0 0 0
					CHANNELS 3 Zrotation Yrotation Xrotation
					JOINT Neck
					{
						OFFSET 0.03239 1.77799 0.24435
						CHANNELS 3 Zrotation Yrotation Xrotation
						JOINT Head
						{
							OFFSET 0.01026 1.74194 -0.49664
							CHANNELS 3 Zrotation Yrotation Xrotation
							End Site
							{
								OFFSET 0.00170 1.83057 -0.19653
							}
						}
					}
				}
				JOINT LeftCollar
				{
					OFFSET 0 0 0
					CHANNELS 3 Zrotation Yrotation Xrotation
					JOINT LeftShoulder
					{
						OFFSET 3.19178 1.35907 -0.31412
CHANNELS 3 Zrotation Xrotation Yrotation
						JOINT LeftElbow
						{
OFFSET 0 -4.852470 -0.000000
CHANNELS 3 Zrotation Xrotation Yrotation
							JOINT LeftWrist
							{
OFFSET 0 -3.555840 0.000000
CHANNELS 3 Zrotation Xrotation Yrotation
								JOINT lhand
								{
									OFFSET 0 0 0
CHANNELS 3 Zrotation Xrotation Yrotation
									JOINT LFingers
									{
OFFSET 0 -0.693200 0.000000
CHANNELS 3 Zrotation Xrotation Yrotation
										End Site
										{
OFFSET 0 -0.558880 0.000000
										}
									}
								}
								JOINT LThumb
								{
OFFSET 0 0.000000 0.000000
CHANNELS 3 Zrotation Xrotation Yrotation
									End Site
									{
OFFSET 0 -0.567410 0.567410
									}
								}
							}
						}
					}
				}
				JOINT RightCollar
				{
					OFFSET 0 0 0
					CHANNELS 3 Zrotation Yrotation Xrotation
					JOINT RightShoulder
					{
						OFFSET -3.28999 1.24191 -0.26899
CHANNELS 3 Zrotation Xrotation Yrotation
						JOINT RightElbow
						{
OFFSET 0 -4.644620 0.000000
CHANNELS 3 Zrotation Xrotation Yrotation
							JOINT RightWrist
							{
OFFSET 0 -3.407030 0.000000
CHANNELS 3 Zrotation Xrotation Yrotation
								JOINT rhand
								{
									OFFSET 0 0 0
CHANNELS 3 Zrotation Xrotation Yrotation
									JOINT RFingers
									{
OFFSET 0 -0.619580 0.000000
CHANNELS 3 Zrotation Xrotation Yrotation
										End Site
										{
OFFSET 0 -0.499520 0.000000
										}
									}
								}
								JOINT RThumb
								{
OFFSET 0 0.000000 0.000000
CHANNELS 3 Zrotation Xrotation Yrotation
									End Site
									{
OFFSET 0 -0.507150 0.507150
									}
								}
							}
						}
					}
				}
			}
		}
	}
}
MOTION
Frames: 5
Frame Time: 0.008333333333333333
-28.494900 17.148500 0.139800 33.191500 86.025400 35.686000 0.000000 0.000000 0.000000 -17.801600 3.677600 10.277100 0.019500 -0.901400 -2.477600 0.299700 4.952600 -13.358600 0.000000 0.000000 0.000000 0.000000 0.000000 0.000000 11.403000 -6.505500 6.410400 -0.039000 -1.274800 3.505200 -0.721900 1.343900 -15.651300 -0.048400 1.419400 -3.903600 -4.704800 0.902700 4.575000 -0.354100 0.997000 1.116900 2.215800 0.521000 -1.488000 3.760100 2.429400 -21.375500 -1.401400 2.815100 25.824000 -0.673600 1.537900 12.142500 -0.000000 0.000000 0.000000 90.000000 0.000000 0.000000 -0.000000 0.000000 0.000000 -0.000000 0.000000 -0.000000 0.000000 0.000000 0.000000 -0.000000 -0.000000 -0.000000 -0.000000 0.000000 -0.000000 -0.000000 0.000000 0.000000 -2.495400 1.883200 31.701300 -16.559100 -26.272800 -3.890100 -11.541000 10.911000 27.026200 0.000000 0.000000 0.000000 7.125000 0.000000 -0.000000 20.217900 56.316300 -5.776300
-28.494564 17.145141 0.140052 32.309696 86.124405 34.899422 0.000000 0.000000 0.000000 -17.556818 3.956727 10.067671 0.019416 -0.898797 -2.470378 0.312968 4.539871 -13.228189 0.000000 0.000000 0.000000 0.000000 0.000000 0.000000 11.531395 -6.469895 6.345657 -0.039504 -1.283197 3.528377 -0.735420 1.543085 -15.750305 -0.014139 0.699161 -1.921746 -4.487645 0.904212 4.462980 -0.421950 1.012535 1.081547 2.024593 0.527718 -1.458273 4.229175 2.445019 -21.089907 -1.752408 2.788648 25.670161 -0.891343 1.527151 12.038961 0.000000 0.000000 0.000000 90.000000 0.000000 0.000000 0.000000 0.000000 0.000000 0.000000 0.000000 0.000000 0.000000 0.000000 0.000000 0.000000 0.000000 0.000000 0.000000 0.000000 0.000000 0.000000 0.000000 0.000000 -2.308056 1.888238 31.602967 -16.519213 -26.219561 -3.872466 -11.705840 11.019242 26.586852 0.000000 0.000000 0.000000 7.125000 0.000000 0.000000 19.778972 55.936909 -5.460057
-28.497558 17.143413 0.140712 32.900635 86.158316 35.499634 0.000000 0.000000 0.000000 -17.381885 4.457496 9.652975 0.014304 -0.766212 -2.105826 0.330380 3.940833 -13.041587 0.000000 0.000000 0.000000 0.000000 0.000000 0.000000 11.489652 -6.518816 6.303404 -0.040483 -1.298661 3.571054 -0.735214 1.610521 -15.731558 -0.003999 0.388300 -1.066855 -4.474398 0.901374 4.464566 -0.448150 1.008977 1.079624 1.990410 0.526078 -1.460210 4.027685 2.384538 -21.140106 -1.538713 2.707975 25.712823 -0.790076 1.500028 12.056095 0.000000 0.000000 0.000000 90.000000 0.000000 0.000000 0.000000 0.000000 0.000000 0.000000 0.000000 0.000000 0.000000 0.000000 0.000000 0.000000 0.000000 0.000000 0.000000 0.000000 0.000000 0.000000 0.000000 0.000000 -2.263263 1.926503 31.564156 -16.555358 -26.267902 -3.888533 -11.795938 11.006946 26.509115 0.000000 0.000000 0.000000 7.125000 0.000000 0.000000 19.640095 55.881962 -5.392158
-28.501648 17.142796 0.141779 33.768290 86.180249 36.346320 0.000000 0.000000 0.000000 -17.475550 4.273178 9.776037 0.015794 -0.805507 -2.213933 0.320838 4.174932 -13.074436 0.000000 0.000000 0.000000 0.000000 0.000000 0.000000 11.446978 -6.536066 6.319362 -0.040329 -1.295699 3.562880 -0.731667 1.552128 -15.706791 -0.002923 0.346271 -0.951395 -4.519838 0.894345 4.522076 -0.453725 0.994530 1.078006 2.010139 0.519820 -1.493654 4.087384 2.397070 -21.067956 -1.593212 2.721832 25.632317 -0.818959 1.504347 12.012754 0.000000 0.000000 0.000000 45.334896 -0.897591 -23.412277 7.150664 -11.634515 1.423020 8.268602 2.467076 13.316875 0.000000 0.000000 0.000000 -3.699290 0.000000 0.000000 -4.332817 1.913974 -4.089676 0.000000 0.000000 0.000000 -2.275459 1.984649 31.581335 -16.614888 -26.347316 -3.914937 -11.925623 10.923541 26.533131 0.000000 0.000000 0.000000 7.125000 0.000000 0.000000 19.524642 55.930386 -5.381902
-28.504818 17.143167 0.142859 34.496162 86.194287 37.042689 0.000000 0.000000 0.000000 -17.628601 3.912133 10.058546 0.019328 -0.897518 -2.466921 0.306720 4.578189 -13.161573 0.000000 0.000000 0.000000 0.000000 0.000000 0.000000 11.452516 -6.447766 6.409475 -0.039082 -1.275271 3.506547 -0.732507 1.392632 -15.756257 -0.003751 0.395052 -1.085470 -4.567834 0.886975 4.587984 -0.455864 0.978975 1.073826 2.034794 0.513182 -1.534473 4.101461 2.405173 -21.018823 -1.611924 2.734535 25.578453 -0.826802 1.508604 11.982917 0.000000 0.000000 0.000000 3.984952 -1.741865 -45.229279 13.781796 -22.421952 2.744353 15.951543 4.621013 25.730736 0.000000 0.000000 0.000000 -7.125000 0.000000 0.000000 -8.335617 3.600041 -7.881064 0.000000 0.000000 0.000000 -2.314031 2.030671 31.687872 -16.650792 -26.395156 -3.930864 -12.148454 10.819064 26.488415 0.000000 0.000000 0.000000 7.125000 0.000000 0.000000 19.273928 55.932461 -5.310410
